<svg width="2387" height="1355" viewBox="0 0 2387 1355" fill="none" xmlns="http://www.w3.org/2000/svg">
<g id="lines" opacity="0.3">
<g id="whitelines">
<rect id="Rectangle 101" x="342.216" y="241.869" width="452" height="70" rx="35" transform="rotate(25 342.216 241.869)" fill="#EBEBEB"/>
<rect id="Rectangle 105" x="555.242" y="490.161" width="452" height="70" rx="35" transform="rotate(25 555.242 490.161)" fill="#EBEBEB"/>
<rect id="Rectangle 100" x="1318.27" y="548.052" width="452" height="70" rx="35" transform="rotate(25 1318.27 548.052)" fill="#EBEBEB"/>
<rect id="Rectangle 103" x="1393.53" y="732.106" width="452" height="70" rx="35" transform="rotate(25 1393.53 732.106)" fill="#EBEBEB"/>
<rect id="Rectangle 108" x="1919.6" y="977.002" width="452" height="70" rx="35" transform="rotate(25 1919.6 977.002)" fill="#EBEBEB"/>
<rect id="Rectangle 106" x="1080.9" y="735.279" width="452" height="70" rx="35" transform="rotate(25 1080.9 735.279)" fill="#EBEBEB"/>
</g>
<g id="bluelines">
<rect id="Rectangle 98" x="266.948" y="57.8148" width="452" height="70" rx="35" transform="rotate(25 266.948 57.8148)" fill="#2A628F"/>
<rect id="Rectangle 104" x="29.5833" y="245.042" width="452" height="70" rx="35" transform="rotate(25 29.5833 245.042)" fill="#2A628F"/>
<rect id="Rectangle 99" x="792.607" y="302.934" width="452" height="70" rx="35" transform="rotate(25 792.607 302.934)" fill="#2A628F"/>
<rect id="Rectangle 102" x="867.874" y="486.987" width="452" height="70" rx="35" transform="rotate(25 867.874 486.987)" fill="#2A628F"/>
<rect id="Rectangle 107" x="1844.33" y="792.948" width="452" height="70" rx="35" transform="rotate(25 1844.33 792.948)" fill="#2A628F"/>
<rect id="Rectangle 109" x="1606.97" y="980.175" width="452" height="70" rx="35" transform="rotate(25 1606.97 980.175)" fill="#2A628F"/>
</g>
</g>
</svg>
