<svg width="489" height="296" viewBox="0 0 489 296" fill="none" xmlns="http://www.w3.org/2000/svg">
<g id="undraw_abstract_x68e 1">
<g id="Box">
<path id="Box-shape" d="M387.812 101.633H283.384V191.677H387.812V101.633Z" fill="#17BEBB"/>
<path id="Vector" d="M333.59 128.942L349.659 156.743L365.729 184.545H333.59H301.45L317.52 156.743L333.59 128.942Z" fill="#2A628F"/>
<path id="Vector_2" d="M333.514 149.069L340.804 161.681L348.093 174.292H333.514H318.934L326.224 161.681L333.514 149.069Z" fill="#D0CDE1"/>
<path id="Vector_3" d="M333.514 108.059L340.804 120.671L348.093 133.282H333.514H318.934L326.224 120.671L333.514 108.059Z" fill="#D0CDE1"/>
</g>
<g id="everythingElse">
<path id="Vector_4" d="M489 294.647H312.838V295.539H489V294.647Z" fill="#2A628F"/>
<path id="Vector_5" d="M211.534 191.231V96.2842H320.425V0H0V286.624H320.425V191.231H211.534Z" fill="#2A628F"/>
<path id="Vector_6" opacity="0.1" d="M320.425 96.2842V0H209.302V94.9469H111.122V0H0V96.2842H100.412V191.231H0V286.624H212.426V191.231H211.534V96.2842H320.425Z" fill="black"/>
<path id="Vector_7" d="M76.7591 0C76.7586 20.3342 68.6714 39.8354 54.2764 54.2139C39.8813 68.5924 20.3576 76.6703 0 76.6707V0H76.7591Z" fill="#17BEBB"/>
<path id="Vector_8" opacity="0.1" d="M35.7019 0C35.7015 9.45771 31.9399 18.5279 25.2446 25.2155C18.5493 31.9031 9.4686 35.6604 0 35.6608V55.2742C14.6764 55.2737 28.7515 49.4501 39.1293 39.0842C49.507 28.7184 55.3374 14.6595 55.3379 0H35.7019Z" fill="black"/>
<path id="Vector_9" d="M320.425 26.7456V12.927H246.789V0H230.724V12.927V26.7456V37.4438V51.2624H246.789H320.425V37.4438H246.789V26.7456H320.425Z" fill="#D0CDE1"/>
<path id="Vector_10" d="M191.451 147.547C191.453 140.614 189.456 133.828 185.7 127.999C181.944 122.17 176.587 117.544 170.27 114.674C163.952 111.804 156.941 110.811 150.074 111.814C143.207 112.817 136.774 115.773 131.544 120.329C126.313 124.885 122.507 130.849 120.578 137.509C118.65 144.168 118.682 151.241 120.67 157.882C122.657 164.524 126.517 170.454 131.788 174.963C137.059 179.473 143.518 182.371 150.394 183.313V234.024H91.1453C89.9012 224.958 85.2573 216.702 78.1525 210.925C71.0476 205.149 62.0118 202.282 52.8719 202.905C43.7319 203.527 35.1696 207.593 28.916 214.28C22.6623 220.967 19.1839 229.777 19.1839 238.927C19.1839 248.078 22.6623 256.887 28.916 263.574C35.1696 270.261 43.7319 274.327 52.8719 274.95C62.0118 275.573 71.0476 272.706 78.1525 266.929C85.2573 261.152 89.9012 252.897 91.1453 243.831H150.394V265.227H160.212V243.831H180.295V234.024H160.212V183.313C168.867 182.128 176.799 177.852 182.542 171.277C188.285 164.702 191.45 156.272 191.451 147.547V147.547Z" fill="#D0CDE1"/>
<path id="Vector_11" d="M279.59 198.48L295.66 226.282L311.73 254.083H279.59H247.451L263.521 226.282L279.59 198.48Z" fill="#D0CDE1"/>
<path id="Vector_12" d="M272.45 257.649H240.311L256.381 229.848L256.492 229.655L250.583 219.431L234.513 247.232L218.443 275.034H250.583H282.722L272.673 257.649H272.45Z" fill="#17BEBB"/>
<path id="Vector_13" d="M70.9575 153.787V129.716H83.0069V115.452H23.2062V175.184H83.0069V153.787H70.9575Z" fill="#D0CDE1"/>
<path id="Vector_14" d="M62.032 104.308H39.7184V126.596H62.032V104.308Z" fill="#17BEBB"/>
<path id="Vector_15" d="M418.173 106.915L410.79 126.405L384.163 135.737C384.163 135.737 368.097 133.954 368.097 142.869C368.097 149.19 387.287 143.761 387.287 143.761L422.392 133.253L433.466 105.862L418.173 106.915Z" fill="#FFB8B8"/>
<path id="Vector_16" d="M433.789 94.2504C433.789 94.2504 426.406 93.1969 422.714 106.893C419.022 120.588 417.968 121.642 417.968 121.642C417.968 121.642 439.59 124.803 440.117 123.749C440.645 122.696 444.864 97.411 433.789 94.2504Z" fill="#2F2E41"/>
<path id="Vector_17" d="M429.57 88.9828C437.434 88.9828 443.809 82.6152 443.809 74.7603C443.809 66.9054 437.434 60.5377 429.57 60.5377C421.706 60.5377 415.331 66.9054 415.331 74.7603C415.331 82.6152 421.706 88.9828 429.57 88.9828Z" fill="#FFB8B8"/>
<path id="Vector_18" d="M423.241 86.349C423.241 86.349 427.988 98.4645 426.406 100.045C424.823 101.625 445.918 103.732 445.918 103.732C445.918 103.732 447.5 95.8307 441.172 91.0898C441.172 91.0898 438.535 83.1884 439.062 81.6081C439.59 80.0278 423.241 86.349 423.241 86.349Z" fill="#FFB8B8"/>
<path id="Vector_19" d="M435.898 91.6166C430.492 93.6556 425.623 96.8982 421.659 101.098C415.331 107.946 412.167 110.053 412.167 110.053C412.167 110.053 404.783 112.687 407.42 125.329C408.739 131.65 407.816 138.762 406.563 144.293C404.65 152.876 403.699 161.646 403.729 170.439V175.898C403.729 175.898 355.211 277.563 371.559 284.411C387.908 291.259 402.674 293.366 403.729 291.786C404.783 290.206 423.769 208.031 423.769 208.031C423.769 208.031 429.042 296 442.227 296C455.411 296 477.033 292.313 477.033 292.313L450.137 186.96C450.137 186.96 456.466 169.051 440.644 156.408L438.535 150.614C447.284 150.618 451.283 95.3085 442.227 90.5631C442.227 90.5631 440.117 88.9828 435.898 91.6166Z" fill="#2F2E41"/>
<path id="Vector_20" d="M422.714 120.062L415.331 139.552L388.704 148.884C388.704 148.884 372.638 147.101 372.638 156.016C372.638 162.337 391.828 156.908 391.828 156.908L426.933 146.4L438.008 119.008L422.714 120.062Z" fill="#FFB8B8"/>
<path id="Vector_21" d="M387.644 296C392.741 296 396.873 293.642 396.873 290.732C396.873 287.823 392.741 285.465 387.644 285.465C382.547 285.465 378.415 287.823 378.415 290.732C378.415 293.642 382.547 296 387.644 296Z" fill="#2F2E41"/>
<path id="Vector_22" d="M458.311 296C463.408 296 467.54 293.642 467.54 290.732C467.54 287.823 463.408 285.465 458.311 285.465C453.214 285.465 449.082 287.823 449.082 290.732C449.082 293.642 453.214 296 458.311 296Z" fill="#2F2E41"/>
<path id="Vector_23" d="M435.067 54.8157H435.067C434.333 54.8172 433.602 54.8898 432.883 55.0326C431.584 54.4026 430.159 54.0746 428.715 54.073H428.336C421.042 54.073 415.129 60.6658 415.129 68.7985V68.7985H417.573L417.968 65.7976L418.547 68.7985H420.583C419.949 71.2065 419.632 73.6864 419.637 76.176V91.1642H423.332L425.472 85.6109L424.937 91.1642H448.689L450.634 86.1158L450.148 91.1642H452.822V79.3958C452.822 65.8206 444.873 54.8157 435.067 54.8157Z" fill="#2F2E41"/>
</g>
</g>
</svg>
