<svg width="32" height="32" viewBox="0 0 32 32" fill="none" xmlns="http://www.w3.org/2000/svg">
<circle cx="16" cy="16" r="16" fill="url(#paint0_linear)"/>
<mask id="mask0" mask-type="alpha" maskUnits="userSpaceOnUse" x="3" y="9" width="25" height="14">
<path d="M9.51412 12.9085C8.29272 12.7456 5.59387 11.6766 3 9C3.97712 12.0128 8.2113 15.7584 11.8755 15.8398C15.5397 15.9213 18.0639 15.8398 18.0639 15.8398C17.3941 14.8113 15.9723 13.2021 13.9111 13.1528C11.85 13.1034 10.7355 13.0713 9.51412 12.9085Z" fill="white"/>
<path d="M5.1171 14.7813C6.83344 16.24 9.51413 17.1426 10.0841 17.2241C10.6541 17.3055 12.8526 17.3055 12.8526 17.3055C14.2369 17.2241 14.3183 16.8984 15.784 16.8984C17.2496 16.8984 18.0295 17.3557 19.6924 18.6083L15.2954 19.4226C15.2954 19.4226 14.5365 19.5535 12.2826 19.4226C10.0288 19.2917 6.81512 17.502 5.1171 14.7813Z" fill="white"/>
<path d="M11.1427 21.1325C10.247 21.1325 8.90222 20.6256 7.64133 19.9111C8.91621 21.3972 11.7127 22.7611 13.0969 22.7611H15.2954C17.0868 22.7611 20.9953 20.9697 20.9953 20.9697C20.3469 20.4363 19.611 20.074 19.041 19.9926C18.471 19.9111 17.8196 19.9111 17.0054 20.074C16.1911 20.2368 14.4812 21.1325 13.0155 21.1325H11.1427Z" fill="white"/>
<path d="M22.1352 22.8425C21.841 16.9662 20.0713 14.5102 14.5626 11.6057C20.1002 12.5078 22.2458 14.3679 24.3337 18.4048C26.2414 16.6948 27.0432 15.2421 27.9979 12.2571C28.0451 16.5953 27.3204 19.2711 22.1352 22.8425Z" fill="white"/>
</mask>
<g mask="url(#mask0)">
<rect x="-1.63916" y="2.04123" width="37.7819" height="27.685" fill="white"/>
</g>
<defs>
<linearGradient id="paint0_linear" x1="-1.18278e-07" y1="15.5" x2="32" y2="16" gradientUnits="userSpaceOnUse">
<stop offset="0.229167" stop-color="#2A628F" stop-opacity="0.92"/>
<stop offset="1" stop-color="#17BEBB" stop-opacity="0.71"/>
</linearGradient>
</defs>
</svg>
